<?xml version="1.0" encoding="utf-8"?>
<!-- Generator: Adobe Illustrator 18.0.0, SVG Export Plug-In . SVG Version: 6.00 Build 0)  -->
<!DOCTYPE svg PUBLIC "-//W3C//DTD SVG 1.1//EN" "http://www.w3.org/Graphics/SVG/1.1/DTD/svg11.dtd">
<svg version="1.1" id="Layer_1" xmlns="http://www.w3.org/2000/svg" xmlns:xlink="http://www.w3.org/1999/xlink" x="0px" y="0px"
	 viewBox="0 0 96.7 25.8" enable-background="new 0 0 96.7 25.8" xml:space="preserve">
<g id="App_Store">
	<path fill="none" stroke="#FFFFFF" stroke-miterlimit="10" d="M3.2,25.3h90.3c1.5,0,2.7-1.2,2.7-2.7V3.2c0-1.5-1.2-2.7-2.7-2.7H3.2
		c-1.5,0-2.7,1.2-2.7,2.7v19.4C0.5,24.1,1.7,25.3,3.2,25.3z"/>
	<g>
		<path fill="#FFFFFF" d="M10,13.4C9.9,13.4,9.9,13.4,10,13.4c0,0.2,0,0.4,0,0.6c0,0.2,0,0.4,0.1,0.5c0,0.2,0.1,0.4,0.1,0.6
			c0,0.2,0.1,0.3,0.1,0.5c0.1,0.2,0.1,0.5,0.2,0.7c0.1,0.2,0.1,0.4,0.2,0.5c0.1,0.2,0.1,0.3,0.2,0.5c0.1,0.1,0.1,0.3,0.2,0.4
			c0.1,0.2,0.2,0.4,0.4,0.6c0.1,0.2,0.2,0.4,0.4,0.6c0.2,0.2,0.3,0.4,0.5,0.6c0.1,0.2,0.3,0.3,0.4,0.5c0.1,0.1,0.3,0.3,0.5,0.4
			c0.2,0.1,0.3,0.2,0.5,0.3c0.1,0.1,0.3,0.1,0.4,0.1c0.2,0.1,0.4,0.1,0.6,0c0.2,0,0.4-0.1,0.6-0.1c0.2-0.1,0.4-0.1,0.6-0.2
			c0.1,0,0.2-0.1,0.4-0.1c0.1,0,0.3-0.1,0.4-0.1c0.2,0,0.4,0,0.5-0.1c0.1,0,0.2,0,0.3,0c0.1,0,0.2,0,0.4,0c0.1,0,0.2,0,0.3,0.1
			c0.1,0,0.3,0.1,0.4,0.1c0.2,0.1,0.3,0.1,0.5,0.2c0.2,0.1,0.3,0.1,0.5,0.2c0.2,0.1,0.4,0,0.6,0c0.2,0,0.5-0.1,0.7-0.2
			c0.3-0.1,0.5-0.3,0.7-0.5c0.1-0.1,0.2-0.3,0.4-0.4c0.1-0.1,0.3-0.3,0.4-0.4c0.1-0.2,0.3-0.4,0.4-0.5c0.2-0.3,0.4-0.6,0.6-1
			c0.1-0.2,0.2-0.5,0.3-0.7c0.1-0.2,0.1-0.4,0.2-0.5c0-0.1,0-0.1-0.1-0.1c-0.1-0.1-0.2-0.1-0.3-0.2c-0.2-0.1-0.4-0.3-0.6-0.4
			c-0.1-0.1-0.3-0.3-0.4-0.4c-0.2-0.2-0.3-0.4-0.4-0.6c-0.1-0.2-0.2-0.5-0.3-0.7c-0.1-0.2-0.1-0.4-0.1-0.6c0-0.1,0-0.2,0-0.3
			c0-0.2,0-0.3,0-0.5c0-0.1,0-0.3,0.1-0.4c0-0.2,0.1-0.4,0.2-0.5c0.1-0.2,0.2-0.4,0.3-0.6c0.1-0.1,0.2-0.3,0.3-0.4
			c0.1-0.1,0.3-0.3,0.4-0.4c0.1-0.1,0.3-0.2,0.4-0.3c0,0,0.1,0,0.1-0.1c0-0.1,0-0.1,0-0.2c-0.1-0.1-0.2-0.2-0.3-0.3
			c-0.1-0.2-0.3-0.3-0.4-0.4c-0.2-0.1-0.3-0.2-0.5-0.3c-0.2-0.1-0.4-0.2-0.6-0.3c-0.1-0.1-0.3-0.1-0.4-0.1c-0.2-0.1-0.4-0.1-0.6-0.1
			c-0.2,0-0.4,0-0.6,0c-0.1,0-0.3,0-0.4,0.1c-0.2,0-0.4,0.1-0.6,0.1c-0.2,0-0.4,0.1-0.5,0.2c-0.3,0.1-0.7,0.2-1,0.3
			c-0.1,0-0.2,0.1-0.4,0c-0.2,0-0.4-0.1-0.6-0.1c-0.3-0.1-0.6-0.2-0.9-0.3c-0.1,0-0.2-0.1-0.4-0.1c-0.2,0-0.3-0.1-0.5-0.1
			c-0.2,0-0.3,0-0.5,0c-0.2,0-0.4,0-0.6,0c-0.2,0-0.4,0.1-0.6,0.1c-0.3,0.1-0.6,0.2-0.8,0.4c-0.3,0.1-0.5,0.3-0.7,0.5
			c-0.2,0.1-0.3,0.3-0.4,0.4c-0.1,0.1-0.2,0.2-0.2,0.3c-0.1,0.1-0.2,0.3-0.3,0.5c-0.1,0.2-0.2,0.3-0.3,0.5c-0.1,0.1-0.1,0.3-0.2,0.4
			c0,0.1-0.1,0.3-0.1,0.4c0,0.1-0.1,0.3-0.1,0.4c0,0.2-0.1,0.3-0.1,0.5C9.9,13.1,10,13.2,10,13.4z M17,7.9C17,7.9,17,7.9,17,7.9
			c0,0,0,0.1,0,0.1c0,0.1,0,0.1,0.1,0.1c0.1,0,0.2,0,0.2,0c0.1,0,0.2-0.1,0.4-0.1C17.8,8,18,8,18.1,7.9c0.1,0,0.2-0.1,0.4-0.2
			c0.3-0.1,0.5-0.3,0.7-0.5c0.2-0.2,0.4-0.3,0.5-0.5c0.1-0.2,0.2-0.3,0.3-0.5c0.1-0.2,0.2-0.3,0.2-0.5c0-0.1,0.1-0.2,0.1-0.3
			c0-0.1,0-0.3,0.1-0.4c0-0.2,0.1-0.3,0-0.5c0,0,0-0.1-0.1-0.1c-0.2,0-0.3,0-0.5,0.1c-0.2,0.1-0.4,0.2-0.7,0.3
			c-0.2,0.1-0.3,0.2-0.5,0.3c-0.2,0.1-0.3,0.2-0.5,0.4c-0.1,0.1-0.2,0.2-0.3,0.3c-0.1,0.1-0.2,0.2-0.3,0.3c-0.2,0.2-0.3,0.5-0.4,0.7
			c-0.1,0.1-0.1,0.3-0.2,0.4c0,0.2-0.1,0.3-0.1,0.5C17,7.7,17,7.8,17,7.9z"/>
		<path fill="#FFFFFF" d="M10,13.4c0-0.2,0-0.3,0-0.5c0-0.2,0-0.4,0.1-0.5c0-0.1,0-0.3,0.1-0.4c0-0.1,0.1-0.3,0.1-0.4
			c0-0.1,0.1-0.3,0.2-0.4c0.1-0.2,0.2-0.4,0.3-0.5c0.1-0.2,0.2-0.3,0.3-0.5c0.1-0.1,0.2-0.2,0.2-0.3c0.1-0.2,0.3-0.3,0.4-0.4
			c0.2-0.2,0.4-0.4,0.7-0.5c0.3-0.1,0.5-0.3,0.8-0.4c0.2-0.1,0.4-0.1,0.6-0.1c0.2,0,0.4,0,0.6,0c0.2,0,0.3,0,0.5,0
			c0.2,0,0.3,0,0.5,0.1c0.1,0,0.2,0.1,0.4,0.1c0.3,0.1,0.6,0.2,0.9,0.3C16.7,9,16.9,9,17.1,9c0.1,0,0.2,0,0.4,0
			c0.3-0.1,0.7-0.2,1-0.3c0.2-0.1,0.4-0.1,0.5-0.2c0.2-0.1,0.4-0.1,0.6-0.1c0.1,0,0.3,0,0.4-0.1c0.2,0,0.4,0,0.6,0
			c0.2,0,0.4,0,0.6,0.1c0.1,0,0.3,0.1,0.4,0.1c0.2,0.1,0.4,0.2,0.6,0.3c0.2,0.1,0.3,0.2,0.5,0.3c0.2,0.1,0.3,0.3,0.4,0.4
			c0.1,0.1,0.2,0.2,0.3,0.3c0,0,0.1,0.1,0,0.2c0,0,0,0-0.1,0.1c-0.1,0.1-0.3,0.2-0.4,0.3c-0.1,0.1-0.3,0.3-0.4,0.4
			c-0.1,0.1-0.2,0.3-0.3,0.4c-0.1,0.2-0.2,0.4-0.3,0.6c-0.1,0.2-0.1,0.4-0.2,0.5c0,0.1,0,0.3-0.1,0.4c0,0.2,0,0.3,0,0.5
			c0,0.1,0,0.2,0,0.3c0,0.2,0.1,0.4,0.1,0.6c0.1,0.2,0.2,0.5,0.3,0.7c0.1,0.2,0.2,0.4,0.4,0.6c0.1,0.1,0.2,0.3,0.4,0.4
			c0.2,0.2,0.4,0.3,0.6,0.4c0.1,0.1,0.2,0.1,0.3,0.2c0.1,0,0.1,0.1,0.1,0.1c-0.1,0.2-0.1,0.4-0.2,0.5c-0.1,0.2-0.2,0.5-0.3,0.7
			c-0.2,0.4-0.4,0.7-0.6,1c-0.1,0.2-0.2,0.4-0.4,0.5c-0.1,0.2-0.2,0.3-0.4,0.4c-0.1,0.1-0.2,0.3-0.4,0.4c-0.2,0.2-0.4,0.4-0.7,0.5
			c-0.2,0.1-0.5,0.2-0.7,0.2c-0.2,0-0.4,0-0.6,0c-0.2,0-0.3-0.1-0.5-0.2c-0.2-0.1-0.3-0.1-0.5-0.2c-0.1,0-0.2-0.1-0.4-0.1
			c-0.1,0-0.2-0.1-0.3-0.1c-0.1,0-0.2,0-0.4,0c-0.1,0-0.2,0-0.3,0c-0.2,0-0.4,0-0.5,0.1c-0.1,0-0.3,0.1-0.4,0.1
			c-0.1,0-0.2,0.1-0.4,0.1c-0.2,0.1-0.4,0.1-0.6,0.2c-0.2,0.1-0.4,0.1-0.6,0.1c-0.2,0-0.4,0-0.6,0c-0.1,0-0.3-0.1-0.4-0.1
			c-0.2-0.1-0.4-0.2-0.5-0.3c-0.2-0.1-0.3-0.3-0.5-0.4c-0.2-0.2-0.3-0.3-0.4-0.5c-0.2-0.2-0.3-0.4-0.5-0.6c-0.1-0.2-0.3-0.4-0.4-0.6
			c-0.1-0.2-0.2-0.4-0.4-0.6c-0.1-0.1-0.1-0.3-0.2-0.4c-0.1-0.2-0.2-0.3-0.2-0.5c-0.1-0.2-0.2-0.4-0.2-0.5c-0.1-0.2-0.2-0.5-0.2-0.7
			c0-0.2-0.1-0.3-0.1-0.5c0-0.2-0.1-0.4-0.1-0.6c0-0.2,0-0.4-0.1-0.5C10,13.8,9.9,13.6,10,13.4C9.9,13.4,9.9,13.4,10,13.4z"/>
		<path fill="#FFFFFF" d="M17,7.9c0-0.1,0-0.2,0.1-0.4c0-0.2,0.1-0.3,0.1-0.5c0-0.1,0.1-0.3,0.2-0.4c0.1-0.2,0.3-0.5,0.4-0.7
			c0.1-0.1,0.2-0.2,0.3-0.3c0.1-0.1,0.2-0.2,0.3-0.3c0.2-0.1,0.3-0.3,0.5-0.4c0.1-0.1,0.3-0.2,0.5-0.3c0.2-0.1,0.4-0.2,0.7-0.3
			c0.2-0.1,0.3-0.1,0.5-0.1c0.1,0,0.1,0,0.1,0.1c0,0.2,0,0.3,0,0.5c0,0.1,0,0.3-0.1,0.4c0,0.1-0.1,0.2-0.1,0.3
			c-0.1,0.2-0.1,0.3-0.2,0.5c-0.1,0.2-0.2,0.3-0.3,0.5c-0.2,0.2-0.3,0.4-0.5,0.5c-0.2,0.2-0.4,0.4-0.7,0.5c-0.1,0.1-0.2,0.1-0.4,0.2
			C18,8,17.8,8,17.7,8.1c-0.1,0-0.2,0.1-0.4,0.1c-0.1,0-0.2,0-0.2,0C17,8.1,17,8.1,17,8C17,8,17,7.9,17,7.9C17,7.9,17,7.9,17,7.9z"
			/>
	</g>
	
		<text transform="matrix(1 0 0 1 32.9286 9.3076)" fill="#FFFFFF" font-family="'OpenSans-Light'" font-size="5.2049" letter-spacing="1">Available on the</text>
	<text transform="matrix(1 0 0 1 31.1893 20.6533)" fill="#FFFFFF" font-family="'OpenSans-Light'" font-size="12.4117">App Store</text>
</g>
</svg>
