<?xml version="1.0" encoding="utf-8"?>
<!-- Generator: Adobe Illustrator 18.0.0, SVG Export Plug-In . SVG Version: 6.00 Build 0)  -->
<!DOCTYPE svg PUBLIC "-//W3C//DTD SVG 1.1//EN" "http://www.w3.org/Graphics/SVG/1.1/DTD/svg11.dtd">
<svg version="1.1" id="Layer_1" xmlns="http://www.w3.org/2000/svg" xmlns:xlink="http://www.w3.org/1999/xlink" x="0px" y="0px"
	 viewBox="0 0 66.8 66.9" enable-background="new 0 0 66.8 66.9" xml:space="preserve">
<g id="Connect_with_Us">
	<g id="Facebook_Icon">
		<g>
			<path fill="#FFFFFF" d="M66,26c1,4.4,1.1,8.7,0.3,13.2c-0.8,5.1-2.8,9.8-5.8,14c-2.9,4-6.4,7.2-10.9,9.4
				c-1.3,0.6-2.5,1.4-3.8,1.9c-5.1,1.9-10.3,2.8-15.8,2.2c-5.2-0.6-10.1-2.2-14.5-5.1c-2.7-1.7-5.1-3.7-7.2-6.1
				c-1.7-2-3.2-4.2-4.5-6.6c-1.5-3-2.6-6-3.2-9.2c-0.6-3.3-0.8-6.6-0.4-10c0.5-4,1.5-7.9,3.4-11.5C6,13.8,9,9.8,13.2,6.9
				C16,4.9,18.8,3,22.1,2c1-0.3,2-0.5,3-0.8c1.2-0.4,2.4-0.7,3.7-0.9c3-0.3,6-0.5,8.9,0c8.8,1.2,16.1,5.3,21.8,12.2
				c0.7,0.9,1.5,1.7,1.9,2.8c0,0.4,0.1,0.7,0.4,1c0.2,0.2,0.5,0.4,0.4,0.7c-0.6,0.9,0,1.4,0.6,1.9C63,19,63,19.2,63,19.5
				c0.2,0.9-0.2,2,0.7,2.8c0.1,0,0,0.2,0.1,0.3c0,0.3-0.1,0.7,0.5,0.4c0.4-0.2,0.3,0.5,0.5,0.7c0.2,0.2-0.1,0.3-0.3,0.3
				c-0.4,0.1-0.3,0.4-0.3,0.7c0,0.3,0.2,0.4,0.5,0.5c0.6,0,0.7,0.4,0.7,0.9c0,0.3-0.1,0.7,0.2,1C66,26.8,65.6,26.3,66,26z
				 M63.1,33.4C63.3,17.3,50,3.8,33.5,3.7C17.1,3.6,3.7,17.2,3.7,33.4c0,16,13.1,29.6,29.5,29.7C49.6,63.3,63.4,49.5,63.1,33.4z"/>
			<path fill="#FFFFFF" d="M66,26c-0.4,0.3,0,0.8-0.4,1.1c-0.3-0.3-0.2-0.7-0.2-1c0-0.5-0.1-0.9-0.7-0.9c-0.3,0-0.5-0.1-0.5-0.5
				c0-0.3-0.1-0.6,0.3-0.7c0.2,0,0.5-0.1,0.3-0.3c-0.2-0.2-0.1-0.9-0.5-0.7c-0.6,0.2-0.5-0.2-0.5-0.4c0-0.1,0-0.2-0.1-0.3
				c-0.9-0.7-0.5-1.8-0.7-2.8C63,19.2,63,19,62.8,18.8c-0.6-0.5-1.2-0.9-0.6-1.9c0.1-0.2-0.2-0.5-0.4-0.7c-0.3-0.3-0.4-0.6-0.4-1
				c0.6,0.2,0.7,0.8,1,1.3c1.3,2.5,2.5,5.1,3.3,7.8C65.9,24.9,65.9,25.5,66,26z"/>
		</g>
		<g>
			<path fill="#FFFFFF" d="M35,45.7c0,3.7,0,7.5,0,11.2c0,0.9-0.3,1.1-1.1,1.1c-2.6,0-5.3,0-7.9,0c-1.4,0-1.4,0-1.4-1.4
				c0-7.4,0-14.8,0-22.1c0-1-0.2-1.4-1.3-1.3c-1,0.1-2,0-3,0c-0.6,0-0.9-0.2-0.9-0.8c0-2.4,0-4.8,0-7.1c0-0.7,0.3-0.9,0.9-0.9
				c1,0,2-0.1,3,0c0.9,0.1,1.3-0.2,1.3-1.2c0-2.1,0-4.2,0.2-6.2c0.3-4.7,3.4-8,8-8.5c3.1-0.3,6.2-0.2,9.3-0.2c0.2,0,0.6,0.4,0.7,0.7
				c0,2.4,0,4.8,0,7.2c0,0.7-0.4,0.8-0.9,0.8c-1.5,0-3,0-4.5,0.1c-1.5,0.1-2.1,0.6-2.2,2.1c-0.1,1.5-0.1,3-0.2,4.5
				c0,0.7,0.4,0.7,0.9,0.7c1.9,0,3.8,0,5.7,0c1.2,0,1.3,0.1,1.1,1.3c-0.3,2.3-0.5,4.5-0.7,6.8c-0.1,0.6-0.3,0.8-0.9,0.8
				c-1.6,0-3.2,0-4.9,0c-0.9,0-1.3,0.2-1.2,1.2C35,38.2,35,42,35,45.7z"/>
		</g>
	</g>
</g>
</svg>
