<?xml version="1.0" encoding="utf-8"?>
<!-- Generator: Adobe Illustrator 18.0.0, SVG Export Plug-In . SVG Version: 6.00 Build 0)  -->
<!DOCTYPE svg PUBLIC "-//W3C//DTD SVG 1.1//EN" "http://www.w3.org/Graphics/SVG/1.1/DTD/svg11.dtd">
<svg version="1.1" id="Layer_1" xmlns="http://www.w3.org/2000/svg" xmlns:xlink="http://www.w3.org/1999/xlink" x="0px" y="0px"
	 viewBox="0 0 13 15.1" enable-background="new 0 0 13 15.1" xml:space="preserve">
<g>
	<path d="M0,1.5C0,1,0,0.5,0,0c4.3,0,8.7,0,13,0c0,0.5,0,1,0,1.5c0,0,0,0,0,0C11.3,3.6,9.7,5.7,8,7.8C8,7.9,7.9,8,7.9,8.1
		c0,2.3,0,4.6,0,6.9c0,0,0,0.1,0,0.1c0,0,0,0,0,0c0,0-0.1,0-0.1-0.1c-0.9-0.4-1.8-0.9-2.7-1.3c-0.1,0-0.1-0.1-0.1-0.2
		C5,11.7,5,9.9,5,8C5,8,5,7.9,5,7.9C3.5,6,2.1,4.1,0.6,2.2C0.4,2,0.2,1.7,0,1.5z"/>
</g>
</svg>
