<?xml version="1.0" encoding="utf-8"?>
<!-- Generator: Adobe Illustrator 18.0.0, SVG Export Plug-In . SVG Version: 6.00 Build 0)  -->
<!DOCTYPE svg PUBLIC "-//W3C//DTD SVG 1.1//EN" "http://www.w3.org/Graphics/SVG/1.1/DTD/svg11.dtd">
<svg version="1.1" id="Layer_1" xmlns="http://www.w3.org/2000/svg" xmlns:xlink="http://www.w3.org/1999/xlink" x="0px" y="0px"
	 viewBox="0 0 96.7 26" enable-background="new 0 0 96.7 26" xml:space="preserve">
<g id="Google_Play">
	<path fill="none" stroke="#FFFFFF" stroke-miterlimit="10" d="M3.8,25.3h89.2c1.8,0,3.3-1.5,3.3-3.3V3.8c0-1.8-1.5-3.3-3.3-3.3H3.8
		C2,0.5,0.5,2,0.5,3.8V22C0.5,23.9,2,25.3,3.8,25.3z"/>
	
		<text transform="matrix(1 0 0 1 31.0508 9.3076)" fill="#FFFFFF" font-family="'OpenSans-Light'" font-size="5.2049" letter-spacing="1">Get it on</text>
	<text transform="matrix(1 0 0 1 28.0606 20.6533)" fill="#FFFFFF" font-family="'Times-Roman'" font-size="12.4117">Google Play</text>
	<g>
		<path fill="#52BDBE" d="M6.1,22.3c-0.3-0.1-0.3-0.3-0.3-0.5c0-6,0-12,0-18c0-0.5,0.4-0.7,0.9-0.4C7.8,3.8,8.9,4.4,9.9,5
			C9.6,5.4,9.5,6.3,9.8,6.5c2.1,2,4.3,4.1,6.4,6.1c-0.6,0.7-1.4,1.2-2,1.8c-1.2,1.3-2.5,2.4-3.7,3.6C9,19.5,7.6,20.9,6.1,22.3z"/>
		<path fill="#C93B6F" d="M6.1,22.3c1.4-1.4,2.9-2.8,4.3-4.2c1.2-1.2,2.6-2.3,3.7-3.6c0.6-0.7,1.4-1.2,2-1.8c0,0,0.1,0,0.1,0
			c0.8,0.9,1.8,1.7,2.7,2.6c-1.8,1-3.6,2-5.3,3c-2.2,1.3-4.5,2.5-6.7,3.7C6.6,22.1,6.4,22.4,6.1,22.3z"/>
		<path fill="#ABD29E" d="M16.2,12.6C16.2,12.6,16.2,12.6,16.2,12.6c-2.2-2-4.3-4.1-6.5-6.1C9.5,6.3,9.6,5.4,9.9,5
			c1.2,0.6,2.4,1.2,3.6,1.9c1.4,0.8,2.9,1.5,4.2,2.4c0.4,0.3,0.9,0.4,1.2,0.7C17.9,10.8,17.1,11.8,16.2,12.6z"/>
		<path fill="#F6A975" d="M16.2,12.6c0.9-0.9,1.7-1.9,2.7-2.6c1.4,0.7,2.7,1.5,4.1,2.2c0.4,0.2,0.4,0.6,0,0.8
			c-1.4,0.7-2.7,1.6-4.1,2.2C18,14.4,17.1,13.6,16.2,12.6z"/>
	</g>
</g>
</svg>
