<?xml version="1.0" encoding="utf-8"?>
<!-- Generator: Adobe Illustrator 18.0.0, SVG Export Plug-In . SVG Version: 6.00 Build 0)  -->
<!DOCTYPE svg PUBLIC "-//W3C//DTD SVG 1.1//EN" "http://www.w3.org/Graphics/SVG/1.1/DTD/svg11.dtd">
<svg version="1.1" id="Layer_1" xmlns="http://www.w3.org/2000/svg" xmlns:xlink="http://www.w3.org/1999/xlink" x="0px" y="0px"
	 viewBox="0 0 60.8 60.9" enable-background="new 0 0 60.8 60.9" xml:space="preserve">
<g id="Connect_with_Us">
	<g id="Facebook_Icon_1_">
		<g>
			<path fill="#FFFFFF" d="M60.1,23.7c0.9,4,1,8,0.3,12c-0.8,4.7-2.6,8.9-5.3,12.7C52.5,52,49.2,55,45.2,57
				c-1.2,0.6-2.3,1.3-3.5,1.8c-4.6,1.8-9.4,2.6-14.4,2c-4.8-0.5-9.2-2-13.2-4.6c-2.4-1.5-4.7-3.4-6.5-5.6c-1.5-1.9-2.9-3.8-4.1-6
				c-1.4-2.7-2.4-5.5-3-8.4c-0.6-3-0.8-6-0.4-9.1c0.5-3.7,1.4-7.2,3.1-10.5c2.1-4,4.9-7.7,8.7-10.3c2.5-1.8,5.1-3.5,8.1-4.5
				c0.9-0.3,1.8-0.4,2.7-0.7c1.1-0.4,2.2-0.7,3.4-0.8c2.7-0.3,5.4-0.4,8.1,0C42.4,1.4,49,5,54.2,11.3c0.6,0.8,1.4,1.6,1.8,2.6
				c0,0.4,0.1,0.6,0.3,0.9c0.2,0.2,0.5,0.4,0.3,0.6c-0.6,0.8,0,1.3,0.5,1.7c0.2,0.2,0.2,0.4,0.3,0.6c0.2,0.8-0.2,1.8,0.7,2.5
				c0.1,0,0,0.2,0,0.3c0,0.3-0.1,0.6,0.5,0.4c0.4-0.1,0.2,0.4,0.5,0.6c0.2,0.2-0.1,0.3-0.2,0.3c-0.4,0.1-0.3,0.4-0.3,0.7
				c0,0.3,0.2,0.4,0.5,0.4c0.5,0,0.6,0.4,0.6,0.8c0,0.3-0.1,0.6,0.1,0.9C60.1,24.4,59.7,23.9,60.1,23.7z M57.4,30.4
				c0.2-14.7-12-27-26.9-27.1C15.5,3.3,3.3,15.6,3.3,30.4c0,14.6,11.9,26.9,26.9,27.1C45.2,57.6,57.7,45.1,57.4,30.4z"/>
			<path fill="#FFFFFF" d="M60.1,23.7c-0.3,0.2,0,0.7-0.4,1c-0.2-0.3-0.1-0.6-0.1-0.9c0-0.4-0.1-0.8-0.6-0.8c-0.3,0-0.5-0.1-0.5-0.4
				c0-0.3-0.1-0.6,0.3-0.7c0.2,0,0.5-0.1,0.2-0.3c-0.2-0.2-0.1-0.8-0.5-0.6c-0.6,0.2-0.4-0.1-0.5-0.4c0-0.1,0-0.2,0-0.3
				c-0.9-0.7-0.5-1.7-0.7-2.5c-0.1-0.2,0-0.5-0.3-0.6c-0.5-0.4-1.1-0.9-0.5-1.7c0.1-0.2-0.2-0.4-0.3-0.6c-0.3-0.3-0.4-0.5-0.3-0.9
				c0.6,0.2,0.7,0.8,0.9,1.2c1.2,2.3,2.3,4.6,3,7.1C60,22.6,60,23.2,60.1,23.7z"/>
		</g>
	</g>
	<g>
		<path fill="#FFFFFF" d="M33.1,25.9c0.4-0.4,0.7-0.7,1.1-1.1c1.1-1.1,2.1-1.8,3.6-2.1c1.8-0.4,3.6-0.4,5.3,0.4s2.8,2.1,3.6,3.9
			c0.4,1.1,0.7,2.1,0.7,3.2c0,1.4,0,2.8,0,4.3c0,3.2,0,6.8,0,10c0,0.4,0,0.4-0.4,0.4c-2.1,0-3.9,0-6.1,0c-0.4,0-0.4,0-0.4-0.4
			c0-3.9,0-7.5,0-11.4c0-1.1,0-1.8-0.4-2.5c-0.4-1.4-1.4-1.8-2.5-2.1c-0.7,0-1.4,0-2.1,0.4c-1.1,0.4-1.8,1.4-1.8,2.5
			c-0.4,1.1-0.4,2.1-0.4,2.8c0,3.2,0,6.8,0,10c0,0.4,0,0.4-0.4,0.4c-2.1,0-3.9,0-6.1,0c-0.4,0-0.4,0-0.4-0.4c0-7.1,0-13.9,0-21
			c0-0.4,0-0.4,0.4-0.4c1.8,0,3.9,0,5.7,0c0.4,0,0.4,0,0.4,0.4C33.1,24.1,33.1,24.8,33.1,25.9L33.1,25.9z"/>
		<path fill="#FFFFFF" d="M16,33.7c0-3.6,0-6.8,0-10.3c0-0.4,0-0.4,0.4-0.4c2.1,0,3.9,0,6.1,0c0.4,0,0.4,0,0.4,0.4
			c0,7.1,0,13.9,0,21c0,0.4,0,0.4-0.4,0.4c-2.1,0-3.9,0-6.1,0c-0.4,0-0.4,0-0.4-0.4C16,40.8,16,37.3,16,33.7z"/>
		<path fill="#FFFFFF" d="M19.2,20.2c-2.1,0-3.9-1.4-3.9-3.9c0-2.1,1.8-3.9,3.9-3.9c2.5,0,3.9,1.8,3.9,3.9S21.4,20.2,19.2,20.2z"/>
	</g>
</g>
</svg>
