<?xml version="1.0" encoding="utf-8"?>
<!-- Generator: Adobe Illustrator 18.0.0, SVG Export Plug-In . SVG Version: 6.00 Build 0)  -->
<!DOCTYPE svg PUBLIC "-//W3C//DTD SVG 1.1//EN" "http://www.w3.org/Graphics/SVG/1.1/DTD/svg11.dtd">
<svg version="1.1" id="Layer_1" xmlns="http://www.w3.org/2000/svg" xmlns:xlink="http://www.w3.org/1999/xlink" x="0px" y="0px"
	 viewBox="0 0 95.2 34.6" enable-background="new 0 0 95.2 34.6" xml:space="preserve">
<g id="Msosi_-_Top">
	<g id="Logo_Small">
		<circle fill="#55C1F0" cx="57.3" cy="16" r="12.2"/>
		<path fill="#FEFFFF" d="M57.2,23.3c-3.6,0.1-7.3-2.8-7.3-7.2c0-4.3,3.6-7.3,7.3-7.2c4,0,7.3,3.2,7.3,7.2
			C64.5,20.1,61.3,23.3,57.2,23.3z M57.7,22.9c-0.1-0.3-0.3-0.6-0.4-0.9c-0.5-1.1-0.3-1.8,0.7-2.6c0.2-0.1,0.4-0.3,0.5-0.4
			c0.6-0.4,1.2-0.8,1.7-1.2c0.5-0.4,1-0.8,1.3-1.5c0.7-1.3,0.4-3.2-0.8-4.5c-1.2-1.3-2.8-2-4.5-2.7c0,0.1,0.1,0.2,0.1,0.3
			c0.9,1.7,0.7,2.5-0.9,3.6c-0.7,0.5-1.4,0.9-2.1,1.4c-1,0.8-1.5,1.8-1.4,3.2c0.1,1.1,0.6,2,1.3,2.7c1.2,1.1,2.6,1.8,4.1,2.4
			C57.5,23,57.6,23,57.7,22.9z"/>
		<path fill="#FEFFFF" d="M66.5,16c0-0.2,0-0.4,0-0.5c0-0.5,0-0.9-0.5-1.1c-0.3-0.1-0.4-0.4-0.4-0.7c0-0.6,0.2-1.1,0.5-1.5
			c0.3-0.4,0.6-0.4,0.9,0c0.4,0.5,0.6,1.1,0.5,1.7c0,0.3-0.2,0.5-0.5,0.6c-0.2,0.1-0.3,0.3-0.3,0.5c0,1.5,0,3.1,0.4,4.6
			c0.1,0.2,0,0.5-0.2,0.6c-0.2,0.1-0.5,0.1-0.7,0c-0.3-0.1-0.2-0.4-0.2-0.7C66.4,18.4,66.4,17.2,66.5,16z"/>
		<path fill="#FEFFFF" d="M47.7,12.1c0,0.6,0,1.3,0,1.9c0,0,0.1,0,0.1,0c0-0.6,0-1.3,0-1.9c0,0,0.1,0,0.1,0c0,0.6,0,1.2,0,1.9
			c0,0,0.1,0,0.1,0c0-0.6,0-1.2,0-1.9c0,0,0.1,0,0.1,0c0,0.6,0,1.3,0,1.9c0,0,0.1,0,0.1,0c0-0.6,0-1.2,0-1.9c0,0,0.1,0,0.1,0
			c0.1,0.7,0.2,1.4,0.2,2.2c0,0.1-0.1,0.3-0.2,0.4c-0.3,0.2-0.3,0.5-0.3,0.9c0.1,1.4,0,2.8,0.4,4.2c0.1,0.2,0.1,0.5-0.2,0.6
			c-0.2,0.1-0.4,0.1-0.6,0c-0.2-0.1-0.2-0.4-0.2-0.6c0.3-1.5,0.3-2.9,0.3-4.4c0-0.2,0-0.4-0.2-0.6c-0.2-0.1-0.3-0.3-0.2-0.5
			c0-0.7,0.1-1.4,0.2-2.1C47.6,12.1,47.6,12.1,47.7,12.1z"/>
		<path fill="#E53935" d="M57.7,22.9c-0.1,0-0.1,0.1-0.2,0c-1.5-0.6-2.9-1.2-4.1-2.4c-0.8-0.8-1.2-1.7-1.3-2.7
			c-0.2-1.3,0.4-2.4,1.4-3.2c0.7-0.5,1.4-0.9,2.1-1.4c1.6-1.1,1.8-1.9,0.9-3.6c0-0.1-0.1-0.1-0.1-0.3c1.7,0.6,3.3,1.3,4.5,2.7
			c1.2,1.3,1.5,3.2,0.8,4.5c-0.3,0.6-0.8,1.1-1.3,1.5c-0.6,0.4-1.2,0.8-1.7,1.2c-0.2,0.1-0.4,0.3-0.5,0.4c-0.9,0.7-1.1,1.5-0.7,2.6
			C57.4,22.3,57.5,22.6,57.7,22.9z"/>
	</g>
	<text transform="matrix(1 0 0 1 -6.993394e-05 26.7303)" fill="#FFFFFF" font-family="'Avenir-Light'" font-size="31.3006">MS   SI</text>
</g>
</svg>
