<?xml version="1.0" encoding="utf-8"?>
<!-- Generator: Adobe Illustrator 18.0.0, SVG Export Plug-In . SVG Version: 6.00 Build 0)  -->
<!DOCTYPE svg PUBLIC "-//W3C//DTD SVG 1.1//EN" "http://www.w3.org/Graphics/SVG/1.1/DTD/svg11.dtd">
<svg version="1.1" id="Layer_1" xmlns="http://www.w3.org/2000/svg" xmlns:xlink="http://www.w3.org/1999/xlink" x="0px" y="0px"
	 viewBox="35.2 252.1 1117.2 305.1" enable-background="new 35.2 252.1 1117.2 305.1" xml:space="preserve">
<g id="Msosi_-_Top">
	<g id="Logo_Small">
		<circle fill="#55C1F0" cx="716.6" cy="404.7" r="152.6"/>
		<path fill="#FEFFFF" d="M715.3,496c-45,1.3-91.3-35-91.3-90c0-53.8,45-91.3,91.3-90c50,0,91.3,40,91.3,90S766.6,496,715.3,496z
			 M721.6,491c-1.3-3.8-3.8-7.5-5-11.3c-6.3-13.8-3.8-22.5,8.8-32.5c2.5-1.3,5-3.8,6.3-5c7.5-5,15-10,21.3-15
			c6.3-5,12.5-10,16.3-18.8c8.8-16.3,5-40-10-56.3c-15-16.3-35-25-56.3-33.8c0,1.3,1.3,2.5,1.3,3.8c11.3,21.3,8.8,31.3-11.3,45
			c-8.8,6.3-17.5,11.3-26.3,17.5c-12.5,10-18.8,22.5-17.5,40c1.3,13.8,7.5,25,16.3,33.8c15,13.8,32.5,22.5,51.3,30
			C719.1,492.2,720.3,492.2,721.6,491z"/>
		<path fill="#FEFFFF" d="M831.6,404.7c0-2.5,0-5,0-6.3c0-6.3,0-11.3-6.3-13.8c-3.8-1.3-5-5-5-8.8c0-7.5,2.5-13.8,6.3-18.8
			c3.8-5,7.5-5,11.3,0c5,6.3,7.5,13.8,6.3,21.3c0,3.8-2.5,6.3-6.3,7.5c-2.5,1.3-3.8,3.8-3.8,6.3c0,18.8,0,38.8,5,57.5
			c1.3,2.5,0,6.3-2.5,7.5c-2.5,1.3-6.3,1.3-8.8,0c-3.8-1.3-2.5-5-2.5-8.8C830.4,434.7,830.4,419.7,831.6,404.7z"/>
		<path fill="#FEFFFF" d="M596.5,355.9c0,7.5,0,16.3,0,23.8h1.3c0-7.5,0-16.3,0-23.8h1.3c0,7.5,0,15,0,23.8h1.3c0-7.5,0-15,0-23.8
			h1.3c0,7.5,0,16.3,0,23.8h1.3c0-7.5,0-15,0-23.8h1.3c1.3,8.8,2.5,17.5,2.5,27.5c0,1.3-1.3,3.8-2.5,5c-3.8,2.5-3.8,6.3-3.8,11.3
			c1.3,17.5,0,35,5,52.5c1.3,2.5,1.3,6.3-2.5,7.5c-2.5,1.3-5,1.3-7.5,0s-2.5-5-2.5-7.5c3.8-18.8,3.8-36.3,3.8-55c0-2.5,0-5-2.5-7.5
			c-2.5-1.3-3.8-3.8-2.5-6.3c0-8.8,1.3-17.5,2.5-26.3C595.3,355.9,595.3,355.9,596.5,355.9z"/>
		<path fill="#E53935" d="M721.6,491c-1.3,0-1.3,1.3-2.5,0c-18.8-7.5-36.3-15-51.3-30c-10-10-15-21.3-16.3-33.8
			c-2.5-16.3,5-30,17.5-40c8.8-6.3,17.5-11.3,26.3-17.5c20-13.8,22.5-23.8,11.3-45c0-1.3-1.3-1.3-1.3-3.8
			c21.3,7.5,41.3,16.3,56.3,33.8c15,16.3,18.8,40,10,56.3c-3.8,7.5-10,13.8-16.3,18.8c-7.5,5-15,10-21.3,15c-2.5,1.3-5,3.8-6.3,5
			c-11.3,8.8-13.8,18.8-8.8,32.5C717.8,483.5,719.1,487.2,721.6,491z"/>
	</g>
	<g enable-background="new    ">
		<path fill="#FFFFFF" d="M35.2,261.7H74l101,232.5l101-232.5h36.8v277.1h-25.8V294.6h-0.8L180.5,538.9h-11.4L61.8,294.6h-0.8v244.3
			H35.2V261.7z"/>
		<path fill="#FFFFFF" d="M393.4,487.6c6.8,11.7,15.6,20.5,26.4,26.2c10.8,5.7,23.2,8.6,37,8.6c8.6,0,16.7-1.3,24.3-3.9
			c7.6-2.6,14.2-6.3,19.8-11c5.6-4.7,10-10.4,13.3-17c3.3-6.7,4.9-14.2,4.9-22.5c0-9.7-2-17.6-6.1-23.9c-4-6.3-9.5-11.4-16.2-15.5
			c-6.8-4-14.4-7.5-22.9-10.4c-8.5-2.9-17.2-5.7-26.2-8.6c-9-2.9-17.7-6.1-26.2-9.8c-8.5-3.7-16.1-8.4-22.9-14.3
			c-6.8-5.9-12.2-13.2-16.2-22.1c-4-8.9-6.1-19.8-6.1-32.9c0-12.3,2.4-23.2,7.2-32.7c4.8-9.5,11.4-17.5,19.6-23.9
			c8.2-6.4,17.7-11.2,28.4-14.5c10.7-3.3,21.9-4.9,33.7-4.9c15.1,0,29.2,2.7,42.1,8c12.9,5.4,24.1,14.3,33.5,26.8l-22.3,16
			c-6.5-9.1-14.2-16-22.9-20.6c-8.7-4.6-19.1-6.9-31.1-6.9c-8.4,0-16.3,1.1-23.9,3.3c-7.6,2.2-14.2,5.5-19.8,9.8
			c-5.6,4.3-10.1,9.7-13.5,16.2c-3.4,6.5-5.1,14.2-5.1,23.1c0,13.8,3.5,24.5,10.6,31.9c7,7.4,15.9,13.3,26.4,17.6
			c10.6,4.3,22,8.1,34.4,11.4c12.4,3.3,23.9,7.6,34.4,13.1c10.6,5.5,19.4,13.1,26.4,22.9s10.6,23.3,10.6,40.5
			c0,12.5-2.3,23.6-7,33.3c-4.7,9.7-11,17.8-19,24.5c-8,6.7-17.2,11.7-27.6,15.1c-10.4,3.4-21.3,5.1-32.5,5.1
			c-18.3,0-35.1-3.2-50.5-9.6c-15.4-6.4-28.6-17.2-39.5-32.3L393.4,487.6z"/>
		<path fill="#FFFFFF" d="M916.3,487.6c6.8,11.7,15.6,20.5,26.4,26.2c10.8,5.7,23.2,8.6,37,8.6c8.6,0,16.7-1.3,24.3-3.9
			c7.6-2.6,14.2-6.3,19.8-11c5.6-4.7,10-10.4,13.3-17c3.3-6.7,4.9-14.2,4.9-22.5c0-9.7-2-17.6-6.1-23.9c-4-6.3-9.5-11.4-16.2-15.5
			c-6.8-4-14.4-7.5-22.9-10.4c-8.5-2.9-17.2-5.7-26.2-8.6c-9-2.9-17.7-6.1-26.2-9.8c-8.5-3.7-16.1-8.4-22.9-14.3
			c-6.8-5.9-12.2-13.2-16.2-22.1c-4-8.9-6.1-19.8-6.1-32.9c0-12.3,2.4-23.2,7.2-32.7c4.8-9.5,11.4-17.5,19.6-23.9
			c8.2-6.4,17.7-11.2,28.4-14.5c10.7-3.3,21.9-4.9,33.7-4.9c15.1,0,29.2,2.7,42.1,8c12.9,5.4,24.1,14.3,33.5,26.8l-22.3,16
			c-6.5-9.1-14.2-16-22.9-20.6c-8.7-4.6-19.1-6.9-31.1-6.9c-8.4,0-16.3,1.1-23.9,3.3c-7.6,2.2-14.2,5.5-19.8,9.8
			c-5.6,4.3-10.1,9.7-13.5,16.2c-3.4,6.5-5.1,14.2-5.1,23.1c0,13.8,3.5,24.5,10.6,31.9c7,7.4,15.9,13.3,26.4,17.6
			c10.6,4.3,22,8.1,34.4,11.4c12.4,3.3,23.9,7.6,34.4,13.1c10.6,5.5,19.4,13.1,26.4,22.9s10.6,23.3,10.6,40.5
			c0,12.5-2.3,23.6-7,33.3c-4.7,9.7-11,17.8-19,24.5c-8,6.7-17.2,11.7-27.6,15.1c-10.4,3.4-21.3,5.1-32.5,5.1
			c-18.3,0-35.1-3.2-50.5-9.6c-15.4-6.4-28.6-17.2-39.5-32.3L916.3,487.6z"/>
		<path fill="#FFFFFF" d="M1126.5,261.7h25.8v277.1h-25.8V261.7z"/>
	</g>
</g>
</svg>
