<?xml version="1.0" encoding="utf-8"?>
<!-- Generator: Adobe Illustrator 18.0.0, SVG Export Plug-In . SVG Version: 6.00 Build 0)  -->
<!DOCTYPE svg PUBLIC "-//W3C//DTD SVG 1.1//EN" "http://www.w3.org/Graphics/SVG/1.1/DTD/svg11.dtd">
<svg version="1.1" id="Layer_1" xmlns="http://www.w3.org/2000/svg" xmlns:xlink="http://www.w3.org/1999/xlink" x="0px" y="0px"
	 viewBox="0 0 12.8 14.1" enable-background="new 0 0 12.8 14.1" xml:space="preserve">
<g>
	<path fill="#FFFFFF" d="M12.3,11.3L8.5,7.1l3.7-4.3c0.6-0.6,0.6-1.7,0-2.3c-0.6-0.6-1.7-0.6-2.3,0L6.4,4.6L2.8,0.5
		c-0.6-0.6-1.7-0.6-2.3,0c-0.6,0.6-0.6,1.7,0,2.3l3.7,4.3l-3.7,4.3c-0.6,0.6-0.6,1.7,0,2.3c0.6,0.6,1.7,0.6,2.3,0l3.6-4.1l3.6,4.1
		c0.6,0.6,1.7,0.6,2.3,0C12.9,13,12.9,12,12.3,11.3z"/>
</g>
</svg>
