<?xml version="1.0" encoding="utf-8"?>
<!-- Generator: Adobe Illustrator 18.0.0, SVG Export Plug-In . SVG Version: 6.00 Build 0)  -->
<!DOCTYPE svg PUBLIC "-//W3C//DTD SVG 1.1//EN" "http://www.w3.org/Graphics/SVG/1.1/DTD/svg11.dtd">
<svg version="1.1" id="Layer_1" xmlns="http://www.w3.org/2000/svg" xmlns:xlink="http://www.w3.org/1999/xlink" x="0px" y="0px"
	 viewBox="0 0 16.3 20.6" enable-background="new 0 0 16.3 20.6" xml:space="preserve">
<path fill="#E53935" d="M1.1,8.1l1.2,10.4c0.1,0.5,2.5,2.1,5.9,2.1c3.5,0,5.8-1.6,5.9-2.1l1.2-10.4c-1.8,1-4.5,1.5-7.1,1.5
	C5.6,9.5,2.9,9.1,1.1,8.1z M11.5,1.6l-0.9-1C10.3,0.1,9.9,0,9.1,0h-2C6.4,0,6,0.1,5.7,0.6l-0.9,1C2,2.1,0,3.4,0,4.3v0.2
	c0,1.7,3.6,3,8.1,3c4.5,0,8.1-1.3,8.1-3V4.3C16.3,3.4,14.3,2.1,11.5,1.6z M10.4,4L9,2.6H7.3L5.9,4H4.1c0,0,2-2.4,2.3-2.7
	C6.6,1.1,6.8,1,7.1,1h2.2c0.3,0,0.5,0.1,0.7,0.3C10.2,1.6,12.2,4,12.2,4H10.4z"/>
</svg>
