<?xml version="1.0" encoding="utf-8"?>
<!-- Generator: Adobe Illustrator 18.0.0, SVG Export Plug-In . SVG Version: 6.00 Build 0)  -->
<!DOCTYPE svg PUBLIC "-//W3C//DTD SVG 1.1//EN" "http://www.w3.org/Graphics/SVG/1.1/DTD/svg11.dtd">
<svg version="1.1" id="Layer_1" xmlns="http://www.w3.org/2000/svg" xmlns:xlink="http://www.w3.org/1999/xlink" x="0px" y="0px"
	 viewBox="0 0 46 17.4" enable-background="new 0 0 46 17.4" xml:space="preserve">
<g id="Tray_Icon">
	<path fill="#FFFFFF" d="M40,10.9c-0.2,0.6-0.7,1-1.3,1.3c-1.3,0.8-2.7,1.2-4.1,1.5c-1.8,0.4-3.7,0.6-5.6,1c0,0.2,0,0.5,0,0.9
		c-3.6,0-7.2,0-10.8,0c0-0.3,0-0.6,0-1c-0.9-0.1-1.8-0.2-2.7-0.3c-2.3-0.4-4.6-0.8-6.7-1.9c-0.5-0.3-0.9-0.7-1.3-1
		c-0.1-0.1-0.2-0.3-0.3-0.5C18.1,10.9,29,10.9,40,10.9z"/>
	<path fill="#FFFFFF" d="M45.9,15.9c0,0.1,0,0.1,0,0.1c0.1,1.3,0.1,1.3-1.2,1.3c-7.7,0-15.5,0-23.2,0c-7,0-13.9,0-20.9,0
		c-0.2,0-0.4,0-0.6,0c0-0.5,0-1,0-1.5C15.3,15.9,30.6,15.9,45.9,15.9z"/>
	<path fill="#FFFFFF" d="M31,0c-0.1,1.3,0.3,2.4,0.8,3.6c0.3,0.8,0,1.5-0.3,2.2c-0.2,0.4-0.5,0.8-0.9,1.1c0.1-0.4,0.2-0.8,0.2-1.3
		c0-0.7,0-1.4-0.2-2.1C30.2,2.3,30.4,1.2,31,0z"/>
	<path fill="#FFFFFF" d="M15.6,7c0.3-1.4,0.2-2.6-0.2-3.9c-0.2-0.5-0.1-1.1,0-1.6c0.1-0.5,0.3-1,0.4-1.5c0.1,0,0.1,0,0.1,0
		c-0.1,1.2,0.2,2.2,0.7,3.3c0.4,1,0.1,1.9-0.3,2.7C16.1,6.4,15.8,6.7,15.6,7z"/>
</g>
</svg>
