<?xml version="1.0" encoding="utf-8"?>
<!-- Generator: Adobe Illustrator 18.0.0, SVG Export Plug-In . SVG Version: 6.00 Build 0)  -->
<!DOCTYPE svg PUBLIC "-//W3C//DTD SVG 1.1//EN" "http://www.w3.org/Graphics/SVG/1.1/DTD/svg11.dtd">
<svg version="1.1" id="Layer_1" xmlns="http://www.w3.org/2000/svg" xmlns:xlink="http://www.w3.org/1999/xlink" x="0px" y="0px"
	 viewBox="0 0 65.1 65.2" enable-background="new 0 0 65.1 65.2" xml:space="preserve">
<g id="Connect_with_Us">
	<g id="Twitter_Icon">
		<path fill="#FFFFFF" d="M64.3,25.3c1,4.3,1,8.5,0.3,12.8c-0.8,5-2.7,9.5-5.7,13.6c-2.8,3.9-6.3,7-10.6,9.2
			c-1.2,0.6-2.4,1.4-3.7,1.9c-5,1.9-10.1,2.7-15.4,2.2c-5.1-0.5-9.8-2.2-14.2-4.9c-2.6-1.7-5-3.6-7-6c-1.7-2-3.1-4.1-4.3-6.4
			c-1.5-2.9-2.6-5.8-3.2-9C0,35.5-0.2,32.2,0.2,29c0.5-3.9,1.4-7.7,3.3-11.2c2.3-4.3,5.3-8.2,9.3-11.1c2.7-1.9,5.5-3.8,8.7-4.8
			c1-0.3,2-0.4,2.9-0.8c1.2-0.4,2.4-0.7,3.6-0.9c2.9-0.3,5.8-0.4,8.7,0C45.3,1.5,52.5,5.4,58,12.1c0.7,0.9,1.5,1.7,1.9,2.7
			c0,0.4,0.1,0.7,0.4,0.9c0.2,0.2,0.5,0.4,0.3,0.6c-0.6,0.9,0,1.3,0.6,1.8c0.2,0.2,0.2,0.4,0.3,0.7c0.2,0.9-0.2,2,0.7,2.7
			c0.1,0,0,0.2,0.1,0.3c0,0.3-0.1,0.7,0.5,0.4c0.4-0.2,0.2,0.5,0.5,0.7c0.2,0.2-0.1,0.3-0.3,0.3c-0.4,0.1-0.3,0.4-0.3,0.7
			c0,0.3,0.2,0.4,0.5,0.4c0.6,0,0.7,0.4,0.7,0.9c0,0.3-0.1,0.7,0.2,1C64.3,26.1,63.9,25.6,64.3,25.3z M61.5,32.6
			c0.2-15.7-12.8-28.9-28.8-29c-16-0.1-29.1,13.1-29.1,29c0,15.6,12.7,28.8,28.8,29C48.3,61.7,61.8,48.3,61.5,32.6z"/>
		<path fill="#FFFFFF" d="M64.3,25.3c-0.4,0.3,0,0.8-0.4,1.1c-0.3-0.3-0.2-0.7-0.2-1c0-0.5-0.1-0.8-0.7-0.9c-0.3,0-0.5-0.1-0.5-0.4
			c0-0.3-0.1-0.6,0.3-0.7c0.2,0,0.5-0.1,0.3-0.3c-0.2-0.2-0.1-0.8-0.5-0.7c-0.6,0.2-0.5-0.2-0.5-0.4c0-0.1,0-0.2-0.1-0.3
			c-0.9-0.7-0.5-1.8-0.7-2.7c-0.1-0.3-0.1-0.5-0.3-0.7c-0.6-0.5-1.2-0.9-0.6-1.8c0.1-0.2-0.2-0.5-0.3-0.6c-0.3-0.3-0.4-0.6-0.4-0.9
			c0.6,0.2,0.7,0.8,1,1.3c1.3,2.4,2.4,4.9,3.2,7.6C64.2,24.2,64.2,24.8,64.3,25.3z"/>
		<path fill="#FFFFFF" d="M17.7,45.6c1.5-0.7,3.2-0.7,4.5-1.7c0.4-0.3,0.9-0.6,1.4-0.8c0.2-0.1,0.3-0.3,0.2-0.5
			c0-0.2-0.2-0.3-0.4-0.3c-2.2-0.2-3.8-1.4-5.1-3c-0.5-0.6-0.6-1.3-0.9-2c-0.2-0.4,0.1-0.5,0.4-0.4c0.9,0.2,1.8,0,2.8-0.1
			c-0.7-0.3-1.3-0.5-1.9-0.8c-1.8-0.9-3.1-2.3-3.9-4.2c0-0.1-0.1-0.2-0.1-0.3c0.1-0.8-0.7-1.7-0.1-2.3c0.6-0.5,1.3,0.4,2.1,0.4
			c0.3,0,0.6,0.5,0.8,0.1c0.2-0.4-0.3-0.5-0.5-0.8c-2.5-2.4-3-5.7-1.9-8.8c0.4-1.1,0.5-1.1,1.3-0.2c1.8,2.1,4,3.8,6.6,5
			c2.4,1.2,5,2,7.7,2.4c0.9,0.1,1.1,0,1.1-1c-0.1-3.5,1.3-6.1,4.3-7.8c1.5-0.8,3.2-0.8,4.9-0.5c1.6,0.2,3,0.8,4.2,1.9
			c0.4,0.3,0.7,0.3,1.1,0.2c1.4-0.4,2.8-1,4.3-1.8c-0.4,2-1.9,3.1-3.3,4.2c1.6,0.3,2.6-0.5,3.7-0.9c0.2-0.1,0.4-0.2,0.5,0
			c0.1,0.2-0.1,0.3-0.2,0.4c-0.9,1-1.6,2.2-2.8,2.9c-0.5,0.3-0.7,0.8-0.8,1.4c-0.1,4.7-1.4,9.1-3.8,13.1c-1.1,1.8-2.6,3.4-4.2,4.8
			c-3,2.6-6.4,4-10.2,4.8c-3.1,0.6-6.2,0.5-9.2-0.1c-2.1-0.4-4.1-1-5.9-2.2c-0.3-0.2-0.6-0.4-0.8-0.8c0.7,0,1.4,0,2.1,0
			c0,0.5-0.6,0.2-0.7,0.6c0.5,0.2,0.9,0.1,1.3,0.1c0.2,0,0.4,0,0.4-0.2c-0.2-0.8,0.4-0.5,0.7-0.6c0.2-0.1,0.5,0.1,0.8-0.1
			C18,45.7,17.8,45.6,17.7,45.6z"/>
		<path fill="#FFFFFF" d="M17.7,45.6c0.2,0,0.4,0,0.6,0.1c-0.3,0.3-0.5,0.1-0.8,0.1c-0.3,0.1-0.9-0.2-0.7,0.6c0,0.2-0.2,0.2-0.4,0.2
			c-0.4,0-0.9,0.1-1.3-0.1c0-0.4,0.7-0.2,0.7-0.6C16.4,45.8,17,45.7,17.7,45.6z"/>
	</g>
</g>
</svg>
